<svg xmlns="http://www.w3.org/2000/svg" viewBox="0 0 100 100" width="100" height="100">
  <!-- Fondo circular -->
  <circle cx="50" cy="50" r="48" fill="#f97316" stroke="#ea580c" stroke-width="2"/>
  
  <!-- Globo terráqueo -->
  <circle cx="50" cy="50" r="35" fill="#3b82f6" stroke="#1d4ed8" stroke-width="1"/>
  
  <!-- Continentes simplificados -->
  <path d="M35 40 Q45 35 55 40 Q65 45 70 55 Q65 65 55 60 Q45 65 35 60 Q30 50 35 40" fill="#10b981"/>
  <path d="M25 60 Q30 55 40 58 Q50 62 45 70 Q35 75 25 70 Q20 65 25 60" fill="#10b981"/>
  
  <!-- Líneas de tendencia -->
  <path d="M20 75 Q30 70 40 72 Q50 68 60 70 Q70 65 80 67" stroke="#fbbf24" stroke-width="2" fill="none"/>
  <path d="M15 80 Q25 78 35 80 Q45 82 55 79 Q65 77 75 80" stroke="#fbbf24" stroke-width="1.5" fill="none"/>
  
  <!-- Puntos de datos -->
  <circle cx="30" cy="70" r="2" fill="#fbbf24"/>
  <circle cx="50" cy="68" r="2" fill="#fbbf24"/>
  <circle cx="70" cy="66" r="2" fill="#fbbf24"/>
  
  <!-- Texto GT (GeoTrends) -->
  <text x="50" y="30" text-anchor="middle" font-family="Arial, sans-serif" font-size="12" font-weight="bold" fill="white">GT</text>
</svg>
